<svg width="32" height="32" viewBox="0 0 32 32" xmlns="http://www.w3.org/2000/svg">
  <!-- Beer mug -->
  <path d="M8 10 L8 24 C8 25.7 9.3 27 11 27 L19 27 C20.7 27 22 25.7 22 24 L22 10 Z" fill="#FFD700" stroke="#B8860B" stroke-width="1.5"/>
  <!-- Handle -->
  <path d="M22 14 L22 20 C22 20 25 20 25 17 C25 14 22 14 22 14" fill="none" stroke="#B8860B" stroke-width="1.5"/>
  <!-- Foam -->
  <ellipse cx="15" cy="9" rx="7" ry="3" fill="#FFF" stroke="#DDD" stroke-width="1"/>
  <path d="M10 9 Q10 7 11 7 T12 9" fill="#FFF"/>
  <path d="M14 8 Q14 6 15 6 T16 8" fill="#FFF"/>
  <path d="M18 9 Q18 7 19 7 T20 9" fill="#FFF"/>
</svg>
